<?xml version="1.0" encoding="UTF-8"?>
<!DOCTYPE svg PUBLIC "-//W3C//DTD SVG 1.1//EN" "http://www.w3.org/Graphics/SVG/1.1/DTD/svg11.dtd">
<!-- Creator: CorelDRAW 2021 (64-Bit) -->
<svg xmlns="http://www.w3.org/2000/svg" xml:space="preserve" width="626px" height="156px" version="1.1" style="shape-rendering:geometricPrecision; text-rendering:geometricPrecision; image-rendering:optimizeQuality; fill-rule:evenodd; clip-rule:evenodd"
viewBox="0 0 210.22 52.41"
 xmlns:xlink="http://www.w3.org/1999/xlink"
 xmlns:xodm="http://www.corel.com/coreldraw/odm/2003">
 <defs>
  <style type="text/css">
   <![CDATA[
    .fil1 {fill:#7EE4F2}
    .fil0 {fill:#6E4D8B;fill-rule:nonzero}
   ]]>
  </style>
 </defs>
 <g id="Capa_x0020_1">
  <metadata id="CorelCorpID_0Corel-Layer"/>
  <path class="fil0" d="M62.96 23.54l10.27 -23.5 7.79 0 10.27 23.5 -8.19 0 -7.59 -19.74 3.09 0 -7.59 19.74 -8.05 0zm6.11 -4.09l2.01 -5.71 10.81 0 2.02 5.71 -14.84 0z"/>
  <path id="_1" class="fil0" d="M92.57 23.54l0 -23.5 7.92 0 0 17.36 10.61 0 0 6.14 -18.53 0z"/>
  <path id="_2" class="fil0" d="M120.54 8.77l10.47 0 0 5.71 -10.47 0 0 -5.71zm0.54 8.8l11.75 0 0 5.97 -19.54 0 0 -23.5 19.1 0 0 5.98 -11.31 0 0 11.55z"/>
  <path id="_3" class="fil0" d="M135.88 23.54l0 -23.5 11.32 0c2.19,0 4.09,0.36 5.69,1.07 1.6,0.72 2.84,1.75 3.71,3.08 0.87,1.33 1.31,2.9 1.31,4.71 0,1.82 -0.44,3.38 -1.31,4.69 -0.87,1.31 -2.11,2.31 -3.71,3 -1.6,0.7 -3.5,1.04 -5.69,1.04l-6.92 0 3.53 -3.25 0 9.16 -7.93 0zm14.07 0l-5.77 -8.56 8.39 0 5.84 8.56 -8.46 0zm-6.14 -8.29l-3.53 -3.59 6.41 0c1.1,0 1.91,-0.25 2.44,-0.74 0.52,-0.49 0.79,-1.16 0.79,-2.02 0,-0.85 -0.27,-1.52 -0.79,-2.01 -0.53,-0.49 -1.34,-0.74 -2.44,-0.74l-6.41 0 3.53 -3.59 0 12.69z"/>
  <path id="_4" class="fil0" d="M165.66 23.54l0 -17.36 -6.88 0 0 -6.14 21.69 0 0 6.14 -6.88 0 0 17.36 -7.93 0z"/>
  <path id="_5" class="fil0" d="M178.79 23.54l10.28 -23.5 7.79 0 10.27 23.5 -8.19 0 -7.59 -19.74 3.09 0 -7.59 19.74 -8.06 0zm6.11 -4.09l2.02 -5.71 10.81 0 2.01 5.71 -14.84 0z"/>
  <path class="fil0" d="M62.96 51.87l0 -23.5 11.31 0c2.19,0 4.09,0.36 5.69,1.07 1.6,0.72 2.84,1.74 3.71,3.07 0.87,1.34 1.31,2.91 1.31,4.72 0,1.82 -0.44,3.38 -1.31,4.7 -0.87,1.32 -2.11,2.35 -3.71,3.08 -1.6,0.72 -3.5,1.09 -5.69,1.09l-6.92 0 3.53 -3.39 0 9.16 -7.92 0zm7.92 -8.29l-3.53 -3.59 6.42 0c1.09,0 1.91,-0.25 2.43,-0.74 0.53,-0.5 0.79,-1.17 0.79,-2.02 0,-0.85 -0.26,-1.52 -0.79,-2.01 -0.52,-0.49 -1.34,-0.74 -2.43,-0.74l-6.42 0 3.53 -3.59 0 12.69z"/>
  <path id="_1_0" class="fil0" d="M94.82 37.1l10.47 0 0 5.71 -10.47 0 0 -5.71zm0.54 8.79l11.75 0 0 5.98 -19.54 0 0 -23.5 19.1 0 0 5.97 -11.31 0 0 11.55z"/>
  <path id="_2_1" class="fil0" d="M110.16 51.87l0 -23.5 7.93 0 0 17.36 10.61 0 0 6.14 -18.54 0z"/>
  <path id="_3_2" class="fil0" d="M141.96 52.41c-3.6,0 -6.41,-0.98 -8.43,-2.92 -2.01,-1.95 -3.02,-4.68 -3.02,-8.2l0 -12.92 7.92 0 0 12.69c0,1.79 0.33,3.06 0.98,3.81 0.65,0.75 1.52,1.13 2.62,1.13 1.12,0 1.99,-0.38 2.63,-1.13 0.64,-0.75 0.96,-2.02 0.96,-3.81l0 -12.69 7.79 0 0 12.92c0,3.52 -1.01,6.25 -3.02,8.2 -2.02,1.94 -4.83,2.92 -8.43,2.92z"/>
  <path id="_4_3" class="fil0" d="M157.03 51.87l0 -23.5 11.59 0c2.62,0 4.92,0.47 6.92,1.42 1.99,0.96 3.54,2.31 4.66,4.05 1.12,1.75 1.68,3.83 1.68,6.25 0,2.44 -0.56,4.53 -1.68,6.29 -1.12,1.76 -2.67,3.11 -4.66,4.06 -2,0.96 -4.3,1.43 -6.92,1.43l-11.59 0zm7.93 -6.18l3.32 0c1.12,0 2.1,-0.21 2.94,-0.63 0.84,-0.43 1.5,-1.06 1.96,-1.9 0.47,-0.84 0.71,-1.87 0.71,-3.07 0,-1.19 -0.24,-2.2 -0.71,-3.03 -0.46,-0.82 -1.12,-1.45 -1.96,-1.88 -0.84,-0.42 -1.82,-0.63 -2.94,-0.63l-3.32 0 0 11.14z"/>
  <path id="_5_4" class="fil0" d="M181.88 51.87l10.27 -23.5 7.79 0 10.28 23.5 -8.19 0 -7.59 -19.74 3.09 0 -7.59 19.74 -8.06 0zm6.11 -4.09l2.02 -5.71 10.81 0 2.01 5.71 -14.84 0z"/>
  <path class="fil1" d="M16 26.6l37.08 -1.29 -5.54 27.1 -7.53 -0.77c-1.26,-3.68 1.6,-13.4 -7.18,-11.34 -5.55,1.31 -4.24,8.59 -6.62,12.11l-7.53 -0.85 -2.68 -24.96z"/>
  <path class="fil1" d="M51.24 21.47c-5.77,-1.85 -12.64,-8.59 -16.66,-11.02 -6.78,-4.1 -13.08,9.48 -19.21,14.39 -4.21,3.38 -9.5,-0.1 -7.2,-4.63 1.63,-3.2 5.92,-6.73 7.92,-8.71 4.33,-4.31 10.31,-12.44 16.91,-11.41 4.61,0.72 13.58,7.82 17.89,10.62 2.3,1.25 4.02,2.81 5.15,4.39 3.23,4.5 -2.71,7.03 -4.8,6.37z"/>
  <path class="fil1" d="M0 43.23l15.53 0.5 -1.82 5.47c-2.81,0.79 -9.99,0.47 -13.03,-0.02l-0.68 -5.95z"/>
 </g>
</svg>
