<?xml version="1.0" encoding="UTF-8"?>
<!DOCTYPE svg PUBLIC "-//W3C//DTD SVG 1.1//EN" "http://www.w3.org/Graphics/SVG/1.1/DTD/svg11.dtd">
<!-- Creator: CorelDRAW 2021 (64-Bit) -->
<svg xmlns="http://www.w3.org/2000/svg" xml:space="preserve" width="478px" height="514px" version="1.1" style="shape-rendering:geometricPrecision; text-rendering:geometricPrecision; image-rendering:optimizeQuality; fill-rule:evenodd; clip-rule:evenodd"
viewBox="0 0 83.26 89.51"
 xmlns:xlink="http://www.w3.org/1999/xlink"
 xmlns:xodm="http://www.corel.com/coreldraw/odm/2003">
 <defs>
  <style type="text/css">
   <![CDATA[
    .fil4 {fill:#FEFEFE;fill-rule:nonzero}
    .fil3 {fill:#EFA6C9;fill-rule:nonzero}
    .fil10 {fill:#F1EFEE;fill-rule:nonzero}
    .fil0 {fill:#EAE8E8;fill-rule:nonzero}
    .fil5 {fill:#D788B9;fill-rule:nonzero}
    .fil1 {fill:#D0D1D1;fill-rule:nonzero}
    .fil6 {fill:#C067A8;fill-rule:nonzero}
    .fil2 {fill:#959798;fill-rule:nonzero}
    .fil8 {fill:#717476;fill-rule:nonzero}
    .fil9 {fill:#45494B;fill-rule:nonzero}
    .fil7 {fill:#393B3F;fill-rule:nonzero}
   ]]>
  </style>
 </defs>
 <g id="Capa_x0020_1">
  <metadata id="CorelCorpID_0Corel-Layer"/>
  <g id="_2112665650064">
   <path class="fil0" d="M70.68 31.4l-58.1 0 -12.58 22.41 5.05 0 -1.82 8.62 5.52 -2.53 -1.6 11.72 4.29 -5.89 0.33 11.17 4.37 -4.09 3.03 12.46 3.7 -8.63 5.72 10.15 4.37 -5.58 8.6 8.23 0.07 0.07 0.08 -0.07 8.59 -8.23 4.37 5.58 5.72 -10.15 3.7 8.63 3.03 -12.46 4.37 4.09 0.34 -11.17 4.28 5.89 -1.59 -11.72 5.51 2.53 -1.81 -8.62 5.04 0 -12.58 -22.41z"/>
   <path class="fil1" d="M8.75 55.78l-4.56 2.09 -0.96 4.56 4.92 -2.26 0.6 -4.39z"/>
   <path class="fil1" d="M5.05 49.69l-2.74 0 -2.31 4.12 4.18 0 0.87 -4.12z"/>
   <path class="fil1" d="M71.83 61.61l-0.34 11.16 -4.37 -4.08 -3.03 12.46 -3.7 -8.63 -5.72 10.15 -4.37 -5.58 -8.59 8.22 -0.08 0.08 -0.07 -0.08 -8.6 -8.22 -4.37 5.58 -5.72 -10.15 -3.7 8.63 -3.03 -12.46 -4.37 4.08 -0.33 -11.16 -3.6 4.94 -0.69 5.07 4.29 -5.89 0.33 11.17 4.37 -4.09 3.03 12.46 3.7 -8.63 5.72 10.15 4.37 -5.58 8.6 8.23 0.07 0.07 0.08 -0.07 8.59 -8.23 4.37 5.58 5.72 -10.15 3.7 8.63 3.03 -12.46 4.37 4.09 0.34 -11.17 4.28 5.89 -0.69 -5.07 -3.59 -4.94z"/>
   <path class="fil1" d="M78.22 49.69l0.86 4.12 4.18 0 -2.31 -4.12 -2.73 0z"/>
   <path class="fil1" d="M74.52 55.78l0.6 4.39 4.91 2.26 -0.96 -4.56 -4.55 -2.09z"/>
   <path class="fil0" d="M14.46 30.98l-1.79 -10.66 -2.24 2.37 2.01 -6.43 -3.81 2.03 2.92 -9.47 -2.92 3.55 3.81 -12.37 24 20.49 -21.98 10.49z"/>
   <path class="fil2" d="M22.7 27.05l13.74 -6.56 -23.84 -20.36 -0.26 0.22 0 0 1.59 3.81 8.77 22.89z"/>
   <path class="fil3" d="M13.93 4.16l6.74 24.46 7.84 -2.55 -3.14 -4.23 -1.57 1.87 -0.68 -7.32 -1.34 1.9 -0.56 -4.9 -1.68 1.63 -1.35 -5.86 -1.34 1.02 -2.92 -6.02z"/>
   <path class="fil0" d="M68.8 30.98l1.79 -10.66 2.25 2.37 -2.02 -6.43 3.81 2.03 -2.91 -9.47 2.91 3.55 -3.81 -12.37 -23.99 20.49 21.97 10.49z"/>
   <path class="fil2" d="M60.56 27.05l-13.73 -6.56 23.83 -20.36 0.27 0.22 0 0 -1.6 3.81 -8.77 22.89z"/>
   <path class="fil3" d="M69.33 4.16l-6.73 24.46 -7.84 -2.55 3.14 -4.23 1.57 1.87 0.67 -7.32 1.34 1.9 0.56 -4.9 1.69 1.63 1.34 -5.86 1.35 1.02 2.91 -6.02z"/>
   <path class="fil4" d="M41.63 42.37l-24.04 -3.14 3.07 13.27c0,0 8.88,11.19 9.51,15.45 0.62,4.23 1.55,10.4 11.36,10.49l0 0c0.03,0 0.07,0 0.1,0 0.04,0 0.07,0 0.11,0l0 0c9.8,-0.09 10.73,-6.26 11.36,-10.49 0.62,-4.26 9.5,-15.45 9.5,-15.45l3.08 -13.27 -24.05 3.14z"/>
   <path class="fil0" d="M41.74 72.31l0 0c-0.04,0 -0.07,0 -0.11,0 -0.03,0 -0.07,0 -0.1,0l0 0c-4.2,-0.04 -6.76,-1.19 -8.38,-2.82 0,0 0,0 0,0.01 0.46,3.12 1.15,7.69 8.4,7.75l0 0.01c0.03,0 0.06,0 0.08,0 0.03,0 0.05,0 0.08,0l0 -0.01c7.25,-0.06 7.94,-4.63 8.4,-7.75 0,-0.01 0,-0.01 0,-0.01 -1.62,1.63 -4.18,2.78 -8.37,2.82z"/>
   <path class="fil5" d="M41.74 72.31l0 0c-0.04,0 -0.07,0 -0.11,0 -0.03,0 -0.07,0 -0.1,0l0 0c-2.16,-0.02 -3.88,-0.33 -5.26,-0.86l0 5.11c0,2.39 2.38,4.35 5.29,4.35l0.14 0c2.91,0 5.3,-1.96 5.3,-4.35l0 -5.11c-1.39,0.53 -3.11,0.84 -5.26,0.86z"/>
   <path class="fil6" d="M41.74 72.31l0 0c-0.04,0 -0.07,0 -0.11,0 -0.03,0 -0.07,0 -0.1,0l0 0c-0.33,0 -0.65,-0.02 -0.96,-0.03l0.77 3.38c0.06,0.27 0.53,0.27 0.59,0l0.77 -3.38c-0.32,0.01 -0.63,0.03 -0.96,0.03z"/>
   <path class="fil6" d="M36.27 71.45l0 1.89c0.75,-0.53 1.63,-0.96 2.58,-1.23 -0.97,-0.15 -1.83,-0.37 -2.58,-0.66z"/>
   <path class="fil6" d="M44.41 72.11c0.96,0.27 1.83,0.7 2.59,1.23l0 -1.89c-0.76,0.29 -1.62,0.51 -2.59,0.66z"/>
   <path class="fil0" d="M46.72 61.82c-0.21,-1.84 -4.01,-1.87 -5.09,-1.85 -1.08,-0.02 -4.88,0.01 -5.09,1.85 -0.22,1.99 2.2,4.65 4.8,4.88l0 0.01c0.1,0 0.2,0 0.29,-0.01 0.1,0.01 0.19,0.01 0.29,0.01l0 -0.01c2.6,-0.23 5.03,-2.89 4.8,-4.88z"/>
   <path class="fil7" d="M46.72 60.76c-0.21,-1.83 -4.01,-1.87 -5.09,-1.84 -1.08,-0.03 -4.88,0.01 -5.09,1.84 -0.22,2 2.2,4.65 4.8,4.88l0 0.01c0.1,0.01 0.2,0 0.29,0 0.1,0 0.19,0.01 0.29,0l0 -0.01c2.6,-0.23 5.03,-2.88 4.8,-4.88z"/>
   <path class="fil2" d="M65.69 22.51c-1.19,-2.14 -3.45,-3.46 -5.89,-3.46l-36.33 0c-2.45,0 -4.7,1.32 -5.9,3.46l-12.9 22.99 11.64 -3.42c1.71,-0.5 3.65,0.02 4.56,1.22l5.73 7.57c1.04,1.37 3.39,1.82 5.17,0.98l1 -0.46c1.93,-0.91 4.47,-0.3 5.37,1.27l2.79 3.34c0.37,0.44 1.04,0.44 1.4,0l2.8 -3.34c0.89,-1.57 3.44,-2.18 5.37,-1.27l0.99 0.46c1.78,0.84 4.13,0.39 5.18,-0.98l5.72 -7.57c0.91,-1.2 2.86,-1.72 4.57,-1.22l11.64 3.42 -12.91 -22.99z"/>
   <path class="fil8" d="M33.35 47.38c0,1.55 -1.25,2.8 -2.81,2.8 -1.55,0 -2.8,-1.25 -2.8,-2.8 0,-1.56 1.25,-2.81 2.8,-2.81 1.56,0 2.81,1.25 2.81,2.81z"/>
   <path class="fil9" d="M33.35 46.11c0,1.55 -1.25,2.81 -2.81,2.81 -1.55,0 -2.8,-1.26 -2.8,-2.81 0,-1.55 1.25,-2.81 2.8,-2.81 1.56,0 2.81,1.26 2.81,2.81z"/>
   <path class="fil10" d="M30.71 45.11c0,0.55 -0.44,1 -0.99,1 -0.55,0 -1,-0.45 -1,-1 0,-0.55 0.45,-0.99 1,-0.99 0.55,0 0.99,0.44 0.99,0.99z"/>
   <path class="fil8" d="M55.53 47.38c0,1.55 -1.26,2.8 -2.81,2.8 -1.55,0 -2.81,-1.25 -2.81,-2.8 0,-1.56 1.26,-2.81 2.81,-2.81 1.55,0 2.81,1.25 2.81,2.81z"/>
   <path class="fil9" d="M55.53 46.11c0,1.55 -1.26,2.81 -2.81,2.81 -1.55,0 -2.81,-1.26 -2.81,-2.81 0,-1.55 1.26,-2.81 2.81,-2.81 1.55,0 2.81,1.26 2.81,2.81z"/>
   <path class="fil10" d="M52.89 45.11c0,0.55 -0.45,1 -1,1 -0.55,0 -0.99,-0.45 -0.99,-1 0,-0.55 0.44,-0.99 0.99,-0.99 0.55,0 1,0.44 1,0.99z"/>
   <path class="fil0" d="M28.62 35.31l-1.44 2.5c-0.22,0.38 -0.11,0.86 0.25,1.1l6.3 4.24c0.76,0.52 1.66,-0.42 1.13,-1.16l-4.86 -6.74c-0.35,-0.49 -1.08,-0.45 -1.38,0.06z"/>
   <path class="fil0" d="M54.64 35.31l1.45 2.5c0.21,0.38 0.1,0.86 -0.25,1.1l-6.31 4.24c-0.76,0.52 -1.66,-0.42 -1.12,-1.16l4.85 -6.74c0.35,-0.49 1.08,-0.45 1.38,0.06z"/>
  </g>
 </g>
</svg>
